<svg fill="none" xmlns="http://www.w3.org/2000/svg" viewBox="0 0 36 36"><path fill="#000046" d="M0 0h36v36H0z"/><path d="M5.973 12H4v12.824h1.55v-5.117l-.128-5.17 2.128 6.72h.913l2.318-6.905-.13 5.355v5.117h1.551V12H10.22l-2.205 6.412L5.973 12ZM22.696 12h-1.542l-.026 8.684a4.116 4.116 0 0 1-.181 1.101c-.11.352-.267.664-.474.934a2.392 2.392 0 0 1-.784.66c-.31.159-.67.238-1.077.238-.408 0-.77-.082-1.086-.246a2.348 2.348 0 0 1-.775-.652 2.996 2.996 0 0 1-.491-.934 3.9 3.9 0 0 1-.172-1.1L16.053 12h-1.516l-.017 8.684c.005.6.109 1.163.31 1.691.2.523.48.978.835 1.366.357.393.785.701 1.284.924.5.223 1.054.335 1.663.335.597 0 1.146-.112 1.646-.335.5-.229.93-.54 1.292-.933a4.29 4.29 0 0 0 .853-1.366c.207-.522.31-1.083.31-1.682L22.696 12ZM25.418 12v1.418h2.938v9.997h-2.938v1.409H33v-1.41h-3.007v-9.996H33V12h-7.582Z" fill="#fff"/></svg>