<svg fill="none" xmlns="http://www.w3.org/2000/svg" viewBox="0 0 242 144"><g clip-path="url(#a)"><path fill="#010146" d="M0 0h242v144H0z"/><circle cx="66.967" cy="74.967" r="91.467" stroke="#fff" stroke-opacity=".3"/><path d="M139.369 74.967c0 40.294-32.607 72.957-72.828 72.957-40.22 0-72.828-32.663-72.828-72.957 0-40.295 32.607-72.958 72.828-72.958 40.221 0 72.828 32.663 72.828 72.958Z" stroke="#fff" stroke-opacity=".3"/><path d="M120.93 74.967c0 29.431-23.92 53.292-53.43 53.292-29.51 0-53.43-23.861-53.43-53.292S37.99 21.675 67.5 21.675c29.51 0 53.43 23.86 53.43 53.292Z" stroke="#fff" stroke-opacity=".3"/><circle cx="174.967" cy="74.967" r="91.467" stroke="#fff" stroke-opacity=".3"/><path d="M247.369 74.967c0 40.294-32.607 72.957-72.828 72.957-40.221 0-72.828-32.663-72.828-72.957 0-40.295 32.607-72.958 72.828-72.958 40.221 0 72.828 32.663 72.828 72.958Z" stroke="#fff" stroke-opacity=".3"/><path d="M228.93 74.967c0 29.431-23.92 53.292-53.43 53.292-29.509 0-53.43-23.861-53.43-53.292s23.921-53.292 53.43-53.292c29.51 0 53.43 23.86 53.43 53.292Z" stroke="#fff" stroke-opacity=".3"/><g filter="url(#b)"><path d="M66.25 48.01a3.5 3.5 0 0 1 3.5 0l20.749 11.98a3.5 3.5 0 0 1 1.75 3.03v23.96a3.5 3.5 0 0 1-1.75 3.03L69.75 101.99a3.501 3.501 0 0 1-3.5 0L45.501 90.01a3.5 3.5 0 0 1-1.75-3.03V63.02a3.5 3.5 0 0 1 1.75-3.03L66.25 48.01Z" fill="#3178C6"/><path d="M66.25 48.01a3.5 3.5 0 0 1 3.5 0l20.749 11.98a3.5 3.5 0 0 1 1.75 3.03v23.96a3.5 3.5 0 0 1-1.75 3.03L69.75 101.99a3.501 3.501 0 0 1-3.5 0L45.501 90.01a3.5 3.5 0 0 1-1.75-3.03V63.02a3.5 3.5 0 0 1 1.75-3.03L66.25 48.01Z" stroke="#fff" stroke-width="1.75"/></g><path fill-rule="evenodd" clip-rule="evenodd" d="M69.694 79.006v3.503c.567.294 1.26.512 2.032.659.77.147 1.611.217 2.452.217.84 0 1.612-.077 2.382-.238a6.042 6.042 0 0 0 1.962-.77c.568-.372 1.051-.842 1.331-1.472.28-.631.498-1.332.498-2.243 0-.637-.098-1.19-.287-1.681a3.3 3.3 0 0 0-.841-1.261c-.358-.372-.77-.701-1.261-.981-.49-.28-1.051-.575-1.682-.841-.462-.19-.84-.372-1.261-.554a5.466 5.466 0 0 1-.911-.546 2.503 2.503 0 0 1-.596-.589 1.23 1.23 0 0 1-.21-.7c0-.239.063-.456.19-.652a1.64 1.64 0 0 1 .525-.498c.224-.14.504-.245.84-.322.33-.077.694-.112 1.122-.112.294 0 .602.022.91.066a7.792 7.792 0 0 1 1.962.547c.309.14.596.3.841.483v-3.293a8.656 8.656 0 0 0-1.751-.456 14.048 14.048 0 0 0-2.172-.147c-.841 0-1.612.091-2.383.266a5.544 5.544 0 0 0-1.962.841c-.567.378-.98.84-1.331 1.472-.33.588-.49 1.26-.49 2.102 0 1.05.3 1.962.91 2.662.603.77 1.542 1.331 2.733 1.892.484.196.911.392 1.331.582.42.189.771.385 1.051.588.302.203.54.428.701.666.175.238.266.518.266.84 0 .225-.054.435-.16.631a1.379 1.379 0 0 1-.498.505 2.84 2.84 0 0 1-.841.336c-.33.077-.7.12-1.191.12-.771 0-1.542-.134-2.243-.4a6.66 6.66 0 0 1-2.102-1.191l.134-.031Zm-5.886-8.619h4.484v-2.872H55.75v2.872h4.484V83.21h3.574V70.387Z" fill="#fff"/><g filter="url(#c)"><path d="M173.25 48.01a3.5 3.5 0 0 1 3.5 0l20.749 11.98a3.5 3.5 0 0 1 1.75 3.03v23.96a3.5 3.5 0 0 1-1.75 3.03l-20.749 11.98a3.501 3.501 0 0 1-3.5 0l-20.749-11.98a3.5 3.5 0 0 1-1.75-3.03V63.02a3.5 3.5 0 0 1 1.75-3.03l20.749-11.98Z" fill="#F7F7F6"/><path d="M173.25 48.01a3.5 3.5 0 0 1 3.5 0l20.749 11.98a3.5 3.5 0 0 1 1.75 3.03v23.96a3.5 3.5 0 0 1-1.75 3.03l-20.749 11.98a3.501 3.501 0 0 1-3.5 0l-20.749-11.98a3.5 3.5 0 0 1-1.75-3.03V63.02a3.5 3.5 0 0 1 1.75-3.03l20.749-11.98Z" stroke="#fff" stroke-width="1.75"/></g><g clip-path="url(#d)"><path d="M159.25 75.663V61.875l11.941 6.894v4.596l-7.961-4.596v9.192l-3.98-2.298Z" fill="#00B0FF"/><path d="m171.191 68.769 11.941-6.894v13.788l-7.961 4.596-3.98-2.298 7.961-4.596V68.77l-7.961 4.596V68.77Z" fill="#0081CB"/><path d="M171.191 77.961v4.597l7.961 4.595v-4.596l-7.961-4.596Z" fill="#00B0FF"/><path d="m179.152 87.153 11.941-6.894v-9.192l-3.98 2.298v4.596l-7.961 4.596v4.596Zm7.961-18.384v-4.596l3.98-2.298v4.596l-3.98 2.298Z" fill="#0081CB"/></g></g><defs><clipPath id="a"><path fill="#fff" d="M0 0h242v144H0z"/></clipPath><clipPath id="d"><path fill="#fff" transform="translate(159.25 61.875)" d="M0 0h31.843v25.375H0z"/></clipPath><filter id="b" x="7.876" y="20.416" width="120.247" height="126.667" filterUnits="userSpaceOnUse" color-interpolation-filters="sRGB"><feFlood flood-opacity="0" result="BackgroundImageFix"/><feColorMatrix in="SourceAlpha" values="0 0 0 0 0 0 0 0 0 0 0 0 0 0 0 0 0 0 127 0" result="hardAlpha"/><feOffset dy="8.75"/><feGaussianBlur stdDeviation="17.5"/><feColorMatrix values="0 0 0 0 0.105882 0 0 0 0 0.12549 0 0 0 0 0.196078 0 0 0 0.12 0"/><feBlend in2="BackgroundImageFix" result="effect1_dropShadow_1838_8045"/><feBlend in="SourceGraphic" in2="effect1_dropShadow_1838_8045" result="shape"/></filter><filter id="c" x="114.876" y="20.416" width="120.247" height="126.667" filterUnits="userSpaceOnUse" color-interpolation-filters="sRGB"><feFlood flood-opacity="0" result="BackgroundImageFix"/><feColorMatrix in="SourceAlpha" values="0 0 0 0 0 0 0 0 0 0 0 0 0 0 0 0 0 0 127 0" result="hardAlpha"/><feOffset dy="8.75"/><feGaussianBlur stdDeviation="17.5"/><feColorMatrix values="0 0 0 0 0.105882 0 0 0 0 0.12549 0 0 0 0 0.196078 0 0 0 0.12 0"/><feBlend in2="BackgroundImageFix" result="effect1_dropShadow_1838_8045"/><feBlend in="SourceGraphic" in2="effect1_dropShadow_1838_8045" result="shape"/></filter></defs></svg>