<svg fill="none" xmlns="http://www.w3.org/2000/svg" viewBox="0 0 242 144"><g clip-path="url(#a)"><path fill="#00B0FF" d="M0 0h242v144H0z"/><circle cx="79" cy="75" r="103.5" stroke="#fff" stroke-opacity=".3"/><path d="M160.941 75c0 45.602-36.902 82.569-82.422 82.569-45.52 0-82.423-36.967-82.423-82.57C-3.904 29.398 33-7.568 78.52-7.568S160.94 29.397 160.94 75Z" stroke="#fff" stroke-opacity=".3"/><path d="M140.09 75c0 33.319-27.08 60.331-60.487 60.331-33.407 0-60.486-27.012-60.486-60.33 0-33.32 27.08-60.331 60.486-60.331 33.407 0 60.487 27.012 60.487 60.33Z" stroke="#fff" stroke-opacity=".3"/><circle cx="163" cy="75" r="103.5" stroke="#fff" stroke-opacity=".3"/><path d="M244.941 75c0 45.602-36.902 82.569-82.422 82.569-45.52 0-82.423-36.967-82.423-82.57 0-45.602 36.903-82.568 82.423-82.568S244.941 29.397 244.941 75Z" stroke="#fff" stroke-opacity=".3"/><path d="M224.09 75c0 33.319-27.08 60.331-60.487 60.331-33.407 0-60.486-27.012-60.486-60.33 0-33.32 27.079-60.331 60.486-60.331S224.09 41.682 224.09 75Z" stroke="#fff" stroke-opacity=".3"/><g filter="url(#b)"><path d="M119.25 48.01a3.5 3.5 0 0 1 3.5 0l20.749 11.98a3.5 3.5 0 0 1 1.75 3.03v23.96a3.5 3.5 0 0 1-1.75 3.03l-20.749 11.98a3.501 3.501 0 0 1-3.5 0L98.501 90.01a3.5 3.5 0 0 1-1.75-3.03V63.02a3.5 3.5 0 0 1 1.75-3.03l20.749-11.98Z" fill="#F7F7F6"/><path d="M119.25 48.01a3.5 3.5 0 0 1 3.5 0l20.749 11.98a3.5 3.5 0 0 1 1.75 3.03v23.96a3.5 3.5 0 0 1-1.75 3.03l-20.749 11.98a3.501 3.501 0 0 1-3.5 0L98.501 90.01a3.5 3.5 0 0 1-1.75-3.03V63.02a3.5 3.5 0 0 1 1.75-3.03l20.749-11.98Z" stroke="#fff" stroke-width="1.75"/></g><g clip-path="url(#c)"><path d="M105.25 75.663V61.875l11.941 6.894v4.596l-7.961-4.596v9.192l-3.98-2.298Z" fill="#00B0FF"/><path d="m117.191 68.769 11.941-6.894v13.788l-7.961 4.596-3.98-2.298 7.961-4.596V68.77l-7.961 4.596V68.77Z" fill="#0081CB"/><path d="M117.191 77.96v4.597l7.961 4.596v-4.596l-7.961-4.596Z" fill="#00B0FF"/><path d="m125.152 87.153 11.941-6.894v-9.192l-3.98 2.298v4.596l-7.961 4.596v4.596Zm7.961-18.384v-4.596l3.98-2.298v4.596l-3.98 2.298Z" fill="#0081CB"/></g></g><defs><clipPath id="a"><path fill="#fff" d="M0 0h242v144H0z"/></clipPath><clipPath id="c"><path fill="#fff" transform="translate(105.25 61.875)" d="M0 0h31.843v25.375H0z"/></clipPath><filter id="b" x="60.876" y="20.416" width="120.247" height="126.667" filterUnits="userSpaceOnUse" color-interpolation-filters="sRGB"><feFlood flood-opacity="0" result="BackgroundImageFix"/><feColorMatrix in="SourceAlpha" values="0 0 0 0 0 0 0 0 0 0 0 0 0 0 0 0 0 0 127 0" result="hardAlpha"/><feOffset dy="8.75"/><feGaussianBlur stdDeviation="17.5"/><feColorMatrix values="0 0 0 0 0.105882 0 0 0 0 0.12549 0 0 0 0 0.196078 0 0 0 0.12 0"/><feBlend in2="BackgroundImageFix" result="effect1_dropShadow_1832_7666"/><feBlend in="SourceGraphic" in2="effect1_dropShadow_1832_7666" result="shape"/></filter></defs></svg>