<svg fill="none" xmlns="http://www.w3.org/2000/svg" viewBox="0 0 242 144"><g clip-path="url(#a)"><path fill="#3178C6" d="M0 0h242v144H0z"/><circle cx="79" cy="75" r="103.5" stroke="#fff" stroke-opacity=".3"/><path d="M160.941 75c0 45.602-36.902 82.569-82.422 82.569-45.52 0-82.423-36.967-82.423-82.57C-3.904 29.398 33-7.568 78.52-7.568S160.94 29.397 160.94 75Z" stroke="#fff" stroke-opacity=".3"/><path d="M140.09 75c0 33.319-27.08 60.331-60.487 60.331-33.407 0-60.486-27.012-60.486-60.33 0-33.32 27.08-60.331 60.486-60.331 33.407 0 60.487 27.012 60.487 60.33Z" stroke="#fff" stroke-opacity=".3"/><circle cx="163" cy="75" r="103.5" stroke="#fff" stroke-opacity=".3"/><path d="M244.941 75c0 45.602-36.902 82.569-82.422 82.569-45.52 0-82.423-36.967-82.423-82.57 0-45.602 36.903-82.568 82.423-82.568S244.941 29.397 244.941 75Z" stroke="#fff" stroke-opacity=".3"/><path d="M224.09 75c0 33.319-27.08 60.331-60.487 60.331-33.407 0-60.486-27.012-60.486-60.33 0-33.32 27.079-60.331 60.486-60.331S224.09 41.682 224.09 75Z" stroke="#fff" stroke-opacity=".3"/><g filter="url(#b)"><path d="M118.25 48.01a3.5 3.5 0 0 1 3.5 0l20.749 11.98a3.5 3.5 0 0 1 1.75 3.03v23.96a3.5 3.5 0 0 1-1.75 3.03l-20.749 11.98a3.501 3.501 0 0 1-3.5 0L97.501 90.01a3.5 3.5 0 0 1-1.75-3.03V63.02a3.5 3.5 0 0 1 1.75-3.03l20.749-11.98Z" fill="#3178C6"/><path d="M118.25 48.01a3.5 3.5 0 0 1 3.5 0l20.749 11.98a3.5 3.5 0 0 1 1.75 3.03v23.96a3.5 3.5 0 0 1-1.75 3.03l-20.749 11.98a3.501 3.501 0 0 1-3.5 0L97.501 90.01a3.5 3.5 0 0 1-1.75-3.03V63.02a3.5 3.5 0 0 1 1.75-3.03l20.749-11.98Z" stroke="#fff" stroke-width="1.75"/></g><path fill-rule="evenodd" clip-rule="evenodd" d="M121.694 79.006v3.503c.567.294 1.261.512 2.032.659.77.147 1.611.217 2.452.217s1.612-.077 2.382-.238a6.037 6.037 0 0 0 1.962-.77c.568-.372 1.051-.842 1.332-1.472.28-.631.497-1.332.497-2.243 0-.637-.098-1.19-.287-1.681a3.303 3.303 0 0 0-.841-1.261 5.566 5.566 0 0 0-1.261-.981 15.688 15.688 0 0 0-1.682-.841c-.462-.19-.841-.372-1.261-.554a5.434 5.434 0 0 1-.911-.546 2.506 2.506 0 0 1-.596-.589c-.14-.21-.21-.441-.21-.7 0-.239.062-.456.189-.652s.302-.358.526-.498c.224-.14.504-.245.841-.322a4.891 4.891 0 0 1 1.121-.112c.294 0 .602.022.911.066a7.849 7.849 0 0 1 1.962.547c.308.14.595.3.84.483v-3.293a8.65 8.65 0 0 0-1.751-.456 14.058 14.058 0 0 0-2.172-.147c-.841 0-1.612.091-2.383.266a5.546 5.546 0 0 0-1.962.841c-.567.378-.981.84-1.331 1.472-.329.588-.49 1.26-.49 2.102 0 1.05.301 1.962.91 2.662.603.77 1.542 1.331 2.733 1.892.484.196.911.392 1.331.582.421.189.771.385 1.051.588.302.203.54.428.701.666.175.238.266.518.266.84 0 .225-.054.435-.161.631a1.375 1.375 0 0 1-.497.505c-.225.14-.498.252-.841.336-.329.077-.701.12-1.191.12a6.348 6.348 0 0 1-2.242-.4 6.666 6.666 0 0 1-2.103-1.191l.134-.031Zm-5.886-8.619h4.484v-2.872H107.75v2.872h4.484V83.21h3.574V70.387Z" fill="#fff"/></g><defs><clipPath id="a"><path fill="#fff" d="M0 0h242v144H0z"/></clipPath><filter id="b" x="59.876" y="20.416" width="120.247" height="126.667" filterUnits="userSpaceOnUse" color-interpolation-filters="sRGB"><feFlood flood-opacity="0" result="BackgroundImageFix"/><feColorMatrix in="SourceAlpha" values="0 0 0 0 0 0 0 0 0 0 0 0 0 0 0 0 0 0 127 0" result="hardAlpha"/><feOffset dy="8.75"/><feGaussianBlur stdDeviation="17.5"/><feColorMatrix values="0 0 0 0 0.105882 0 0 0 0 0.12549 0 0 0 0 0.196078 0 0 0 0.12 0"/><feBlend in2="BackgroundImageFix" result="effect1_dropShadow_1832_7654"/><feBlend in="SourceGraphic" in2="effect1_dropShadow_1832_7654" result="shape"/></filter></defs></svg>